<svg xmlns="http://www.w3.org/2000/svg" viewBox="0 0 800 400">
  <defs>
    <linearGradient id="bg" x1="0%" y1="0%" x2="100%" y2="100%">
      <stop offset="0%" style="stop-color:#003f6b;stop-opacity:1" />
      <stop offset="60%" style="stop-color:#005a87;stop-opacity:1" />
      <stop offset="100%" style="stop-color:#007ab5;stop-opacity:1" />
    </linearGradient>
    <linearGradient id="accent" x1="0%" y1="0%" x2="100%" y2="0%">
      <stop offset="0%" style="stop-color:#abce5f;stop-opacity:1" />
      <stop offset="100%" style="stop-color:#c8e47a;stop-opacity:1" />
    </linearGradient>
    <radialGradient id="kidneyGrad" cx="45%" cy="40%" r="65%">
      <stop offset="0%" style="stop-color:#e6f4ff;stop-opacity:0.9" />
      <stop offset="55%" style="stop-color:#7eb8d4;stop-opacity:0.85" />
      <stop offset="100%" style="stop-color:#3a7ca5;stop-opacity:0.9" />
    </radialGradient>
    <radialGradient id="stoneGrad" cx="40%" cy="35%" r="60%">
      <stop offset="0%" style="stop-color:#ffd166;stop-opacity:1" />
      <stop offset="100%" style="stop-color:#e07b00;stop-opacity:1" />
    </radialGradient>
    <linearGradient id="screenPanel" x1="0%" y1="0%" x2="0%" y2="100%">
      <stop offset="0%" style="stop-color:#ffffff;stop-opacity:0.18" />
      <stop offset="100%" style="stop-color:#ffffff;stop-opacity:0.05" />
    </linearGradient>
  </defs>
  <rect width="800" height="400" fill="url(#bg)" />
  <circle cx="710" cy="55" r="115" fill="#007ab5" opacity="0.22"/>
  <circle cx="750" cy="330" r="80" fill="#abce5f" opacity="0.10"/>
  <circle cx="70" cy="350" r="100" fill="#005a87" opacity="0.28"/>
  <circle cx="45" cy="80" r="55" fill="#abce5f" opacity="0.10"/>
  <circle cx="610" cy="38" r="4" fill="#abce5f" opacity="0.5"/>
  <circle cx="635" cy="53" r="3" fill="#abce5f" opacity="0.4"/>
  <circle cx="620" cy="72" r="5" fill="#abce5f" opacity="0.3"/>
  <circle cx="658" cy="32" r="3" fill="#abce5f" opacity="0.5"/>
  <g transform="translate(130 90)">
    <path d="M 50 0 C 100 -5 130 30 128 80 C 126 130 105 170 80 185 C 55 200 15 195 5 165 C -10 130 0 80 5 50 C 12 15 20 5 50 0 Z" fill="url(#kidneyGrad)" stroke="#ffffff" stroke-width="2.5" opacity="0.92"/>
    <path d="M 50 30 C 85 28 110 55 108 90 C 106 125 88 148 68 158 C 48 168 22 163 16 140 C 8 112 18 75 22 52 C 28 30 30 32 50 30 Z" fill="#005a87" opacity="0.35"/>
    <ellipse cx="55" cy="80" rx="20" ry="30" fill="none" stroke="#e6f4ff" stroke-width="1.5" opacity="0.35"/>
    <ellipse cx="45" cy="130" rx="16" ry="22" fill="none" stroke="#e6f4ff" stroke-width="1.5" opacity="0.3"/>
    <g transform="translate(42 65)">
      <polygon points="0,-11 8,-5 8,6 0,11 -8,6 -8,-5" fill="url(#stoneGrad)" stroke="#ffffff" stroke-width="1.5" opacity="0.97"/>
      <circle cx="-2" cy="-3" r="3" fill="#ffffff" opacity="0.4"/>
    </g>
    <g transform="translate(60 115)">
      <polygon points="0,-7 5,-3 5,4 0,7 -5,4 -5,-3" fill="url(#stoneGrad)" stroke="#ffffff" stroke-width="1" opacity="0.92"/>
    </g>
    <g stroke="#ffd166" stroke-width="1.8" opacity="0.6" fill="none">
      <line x1="5" y1="50" x2="-18" y2="35"/>
      <line x1="-5" y1="90" x2="-28" y2="88"/>
      <line x1="10" y1="130" x2="-14" y2="142"/>
    </g>
  </g>
  <g transform="translate(245 105)" opacity="0.60">
    <path d="M 50 0 C 100 -5 130 30 128 80 C 126 130 105 170 80 185 C 55 200 15 195 5 165 C -10 130 0 80 5 50 C 12 15 20 5 50 0 Z" fill="url(#kidneyGrad)" stroke="#c8e47a" stroke-width="1.5"/>
    <path d="M 50 30 C 85 28 110 55 108 90 C 106 125 88 148 68 158 C 48 168 22 163 16 140 C 8 112 18 75 22 52 C 28 30 30 32 50 30 Z" fill="#005a87" opacity="0.35"/>
  </g>
  <g opacity="0.5" transform="translate(155 80)">
    <path d="M -25 -10 Q -10 -18 5 -10" fill="none" stroke="#abce5f" stroke-width="2"/>
    <path d="M -30 -5 Q -10 -16 10 -5" fill="none" stroke="#abce5f" stroke-width="2"/>
    <path d="M -35 0 Q -10 -14 15 0" fill="none" stroke="#abce5f" stroke-width="2"/>
  </g>
  <g transform="translate(450 60)">
    <rect x="0" y="0" width="300" height="220" rx="12" fill="url(#screenPanel)" stroke="#abce5f" stroke-width="2" opacity="0.95"/>
    <path d="M 150 18 L 30 200 L 270 200 Z" fill="#071824" opacity="0.65"/>
    <g fill="#ffffff" opacity="0.3">
      <circle cx="85" cy="80" r="1.2"/><circle cx="105" cy="115" r="1"/>
      <circle cx="128" cy="58" r="1.4"/><circle cx="150" cy="95" r="1.2"/>
      <circle cx="172" cy="138" r="1"/><circle cx="192" cy="78" r="1.3"/>
      <circle cx="210" cy="118" r="1"/><circle cx="95" cy="148" r="1.2"/>
      <circle cx="175" cy="165" r="1.1"/><circle cx="230" cy="148" r="1.2"/>
      <circle cx="65" cy="128" r="1"/><circle cx="200" cy="55" r="1.2"/>
      <circle cx="130" cy="162" r="1.1"/><circle cx="240" cy="105" r="1"/>
      <circle cx="75" cy="175" r="1.2"/><circle cx="118" cy="185" r="1"/>
    </g>
    <path d="M 120 55 C 155 52 175 78 174 110 C 172 142 158 162 140 170 C 122 178 100 174 94 155 C 86 132 92 100 96 78 C 102 56 105 58 120 55 Z" fill="#0a2035" stroke="#7eb8d4" stroke-width="1.5" opacity="0.9"/>
    <circle cx="128" cy="102" r="8" fill="#ffd166" opacity="0.92" stroke="#ffffff" stroke-width="1.5"/>
    <path d="M 122 110 L 118 175 M 134 110 L 138 175" stroke="#071824" stroke-width="5" opacity="0.7"/>
    <g stroke="#abce5f" stroke-width="1.5" opacity="0.9" fill="none">
      <line x1="108" y1="102" x2="148" y2="102"/>
      <line x1="108" y1="97" x2="108" y2="107"/>
      <line x1="148" y1="97" x2="148" y2="107"/>
    </g>
    <text x="150" y="98" font-family="Montserrat, Arial, sans-serif" font-size="9" fill="#ffd166" opacity="0.95">7mm</text>
    <text x="150" y="215" font-family="Montserrat, Arial, sans-serif" font-size="10" font-weight="700" fill="#abce5f" text-anchor="middle" opacity="0.95">RIM DIREITO • ECO DENSIFICADO</text>
    <text x="14" y="28" font-family="Montserrat, Arial, sans-serif" font-size="9" font-weight="600" fill="#ffffff" opacity="0.7">US VU • 5 MHz</text>
  </g>
  <text x="400" y="326" font-family="Montserrat, Arial, sans-serif" font-size="25" font-weight="800" fill="#ffffff" text-anchor="middle">Cálculos Renais</text>
  <text x="400" y="358" font-family="Open Sans, Arial, sans-serif" font-size="14" font-weight="400" fill="#c8e47a" text-anchor="middle">Ultrassom e tomografia no diagnóstico de pedras nos rins</text>
  <rect x="270" y="374" width="260" height="3" rx="1.5" fill="url(#accent)" opacity="0.85"/>
</svg>
