<svg xmlns="http://www.w3.org/2000/svg" viewBox="0 0 800 400">
  <defs>
    <linearGradient id="bg" x1="0%" y1="0%" x2="100%" y2="100%">
      <stop offset="0%" style="stop-color:#003f6b;stop-opacity:1" />
      <stop offset="60%" style="stop-color:#005a87;stop-opacity:1" />
      <stop offset="100%" style="stop-color:#007ab5;stop-opacity:1" />
    </linearGradient>
    <linearGradient id="accent" x1="0%" y1="0%" x2="100%" y2="0%">
      <stop offset="0%" style="stop-color:#abce5f;stop-opacity:1" />
      <stop offset="100%" style="stop-color:#c8e47a;stop-opacity:1" />
    </linearGradient>
    <radialGradient id="liverGrad" cx="40%" cy="40%" r="70%">
      <stop offset="0%" style="stop-color:#ffd7c2;stop-opacity:0.98" />
      <stop offset="55%" style="stop-color:#e8956a;stop-opacity:0.95" />
      <stop offset="100%" style="stop-color:#a85a35;stop-opacity:0.92" />
    </radialGradient>
    <radialGradient id="fatGrad" cx="50%" cy="50%" r="50%">
      <stop offset="0%" style="stop-color:#fff4b3;stop-opacity:0.95" />
      <stop offset="100%" style="stop-color:#ffd166;stop-opacity:0.9" />
    </radialGradient>
    <linearGradient id="screenPanel" x1="0%" y1="0%" x2="0%" y2="100%">
      <stop offset="0%" style="stop-color:#ffffff;stop-opacity:0.18" />
      <stop offset="100%" style="stop-color:#ffffff;stop-opacity:0.05" />
    </linearGradient>
  </defs>
  <rect width="800" height="400" fill="url(#bg)" />
  <circle cx="700" cy="60" r="120" fill="#007ab5" opacity="0.25"/>
  <circle cx="740" cy="320" r="80" fill="#abce5f" opacity="0.12"/>
  <circle cx="80" cy="350" r="100" fill="#005a87" opacity="0.3"/>
  <circle cx="50" cy="80" r="60" fill="#abce5f" opacity="0.1"/>
  <circle cx="600" cy="40" r="4" fill="#abce5f" opacity="0.5"/>
  <circle cx="625" cy="55" r="3" fill="#abce5f" opacity="0.4"/>
  <circle cx="615" cy="75" r="5" fill="#abce5f" opacity="0.3"/>
  <circle cx="650" cy="35" r="3" fill="#abce5f" opacity="0.5"/>
  <g opacity="0.15">
    <path d="M 120 80 Q 110 130 115 180 Q 120 230 130 280 L 320 280 Q 330 230 335 180 Q 340 130 330 80 Z" fill="#ffffff" stroke="none"/>
  </g>
  <g transform="translate(225 175)">
    <path d="M -85 -25 Q -90 -45 -65 -55 Q -30 -62 10 -58 Q 50 -55 75 -40 Q 90 -25 85 5 Q 80 30 60 45 Q 30 58 -5 55 Q -45 50 -70 35 Q -90 15 -85 -25 Z" fill="url(#liverGrad)" stroke="#ffffff" stroke-width="2" opacity="0.95"/>
    <path d="M -5 -55 Q 0 -10 5 50" fill="none" stroke="#a85a35" stroke-width="1.6" opacity="0.6"/>
    <ellipse cx="20" cy="38" rx="9" ry="14" fill="#a8c95f" stroke="#ffffff" stroke-width="1.4" opacity="0.9"/>
    <g>
      <circle cx="-50" cy="-30" r="6" fill="url(#fatGrad)" stroke="#ffffff" stroke-width="1" opacity="0.92"/>
      <circle cx="-25" cy="-15" r="5" fill="url(#fatGrad)" stroke="#ffffff" stroke-width="1" opacity="0.92"/>
      <circle cx="15" cy="-30" r="7" fill="url(#fatGrad)" stroke="#ffffff" stroke-width="1" opacity="0.92"/>
      <circle cx="45" cy="-20" r="5" fill="url(#fatGrad)" stroke="#ffffff" stroke-width="1" opacity="0.92"/>
      <circle cx="-40" cy="10" r="6" fill="url(#fatGrad)" stroke="#ffffff" stroke-width="1" opacity="0.92"/>
      <circle cx="-10" cy="15" r="5" fill="url(#fatGrad)" stroke="#ffffff" stroke-width="1" opacity="0.92"/>
      <circle cx="30" cy="10" r="6" fill="url(#fatGrad)" stroke="#ffffff" stroke-width="1" opacity="0.92"/>
      <circle cx="55" cy="25" r="4" fill="url(#fatGrad)" stroke="#ffffff" stroke-width="1" opacity="0.92"/>
      <circle cx="-60" cy="-5" r="4" fill="url(#fatGrad)" stroke="#ffffff" stroke-width="1" opacity="0.92"/>
      <circle cx="0" cy="-45" r="4" fill="url(#fatGrad)" stroke="#ffffff" stroke-width="1" opacity="0.92"/>
      <circle cx="-52" cy="-32" r="2" fill="#ffffff" opacity="0.7"/>
      <circle cx="13" cy="-32" r="2.5" fill="#ffffff" opacity="0.7"/>
      <circle cx="-42" cy="8" r="2" fill="#ffffff" opacity="0.7"/>
      <circle cx="28" cy="8" r="2" fill="#ffffff" opacity="0.7"/>
    </g>
  </g>
  <g opacity="0.55">
    <path d="M 165 110 Q 200 100 235 110" fill="none" stroke="#abce5f" stroke-width="2"/>
    <path d="M 160 122 Q 200 110 240 122" fill="none" stroke="#abce5f" stroke-width="2"/>
    <path d="M 155 135 Q 200 120 245 135" fill="none" stroke="#abce5f" stroke-width="2"/>
  </g>
  <g transform="translate(178 55)">
    <rect x="0" y="0" width="44" height="58" rx="9" fill="#ffffff" opacity="0.95"/>
    <rect x="5" y="5" width="34" height="38" rx="5" fill="#005a87" opacity="0.85"/>
    <rect x="2" y="46" width="40" height="10" rx="3" fill="#abce5f" opacity="0.95"/>
    <path d="M 22 0 Q 50 -22 95 -8" fill="none" stroke="#ffffff" stroke-width="3.5" opacity="0.85"/>
    <circle cx="13" cy="26" r="2.5" fill="#ffffff" opacity="0.7"/>
    <circle cx="31" cy="26" r="2.5" fill="#ffffff" opacity="0.7"/>
  </g>
  <g transform="translate(450 70)">
    <rect x="0" y="0" width="280" height="190" rx="12" fill="url(#screenPanel)" stroke="#abce5f" stroke-width="2" opacity="0.95"/>
    <path d="M 140 15 L 30 170 L 250 170 Z" fill="#0a1d2e" opacity="0.6"/>
    <g fill="#ffd166" opacity="0.55">
      <circle cx="80" cy="80" r="1.5"/>
      <circle cx="100" cy="105" r="1.4"/>
      <circle cx="120" cy="60" r="1.6"/>
      <circle cx="140" cy="90" r="1.5"/>
      <circle cx="160" cy="120" r="1.4"/>
      <circle cx="180" cy="75" r="1.6"/>
      <circle cx="200" cy="110" r="1.4"/>
      <circle cx="90" cy="135" r="1.5"/>
      <circle cx="170" cy="150" r="1.4"/>
      <circle cx="220" cy="135" r="1.5"/>
      <circle cx="60" cy="115" r="1.4"/>
      <circle cx="195" cy="55" r="1.5"/>
      <circle cx="125" cy="150" r="1.4"/>
      <circle cx="110" cy="80" r="1.3"/>
      <circle cx="150" cy="70" r="1.4"/>
      <circle cx="185" cy="135" r="1.3"/>
    </g>
    <ellipse cx="140" cy="100" rx="75" ry="55" fill="#ffd166" opacity="0.12"/>
    <g stroke="#abce5f" stroke-width="1.6" opacity="0.95" fill="none">
      <line x1="50" y1="50" x2="100" y2="85"/>
      <polygon points="100,85 92,82 96,78" fill="#abce5f" opacity="0.95" stroke="none"/>
    </g>
    <text x="48" y="46" font-family="Montserrat, Arial, sans-serif" font-size="9" font-weight="700" fill="#abce5f" text-anchor="start" opacity="0.95">FÍGADO BRILHANTE</text>
    <text x="140" y="184" font-family="Montserrat, Arial, sans-serif" font-size="10" font-weight="700" fill="#abce5f" text-anchor="middle" opacity="0.95">FÍGADO • MODO B</text>
    <text x="14" y="28" font-family="Montserrat, Arial, sans-serif" font-size="9" font-weight="600" fill="#ffffff" opacity="0.7">3.5 MHz • ABD</text>
  </g>
  <text x="400" y="320" font-family="Montserrat, Arial, sans-serif" font-size="26" font-weight="800" fill="#ffffff" text-anchor="middle">Esteatose hepática</text>
  <text x="400" y="355" font-family="Open Sans, Arial, sans-serif" font-size="15" font-weight="400" fill="#c8e47a" text-anchor="middle">Ultrassom abdominal • Fígado gorduroso • Diagnóstico precoce</text>
  <rect x="280" y="370" width="240" height="3" rx="1.5" fill="url(#accent)" opacity="0.85"/>
</svg>
