<svg viewBox="0 0 800 400" xmlns="http://www.w3.org/2000/svg">
  <defs>
    <linearGradient id="bgGrad" x1="0%" y1="0%" x2="100%" y2="100%">
      <stop offset="0%" style="stop-color:#003d5c;stop-opacity:1" />
      <stop offset="50%" style="stop-color:#005a87;stop-opacity:1" />
      <stop offset="100%" style="stop-color:#004a70;stop-opacity:1" />
    </linearGradient>
    <linearGradient id="greenGrad" x1="0%" y1="0%" x2="100%" y2="0%">
      <stop offset="0%" style="stop-color:#abce5f;stop-opacity:1" />
      <stop offset="100%" style="stop-color:#c8e87a;stop-opacity:1" />
    </linearGradient>
    <linearGradient id="uterusGrad" x1="0%" y1="0%" x2="0%" y2="100%">
      <stop offset="0%" style="stop-color:#ffffff;stop-opacity:0.20" />
      <stop offset="100%" style="stop-color:#ffffff;stop-opacity:0.05" />
    </linearGradient>
    <filter id="glow">
      <feGaussianBlur stdDeviation="3" result="coloredBlur"/>
      <feMerge><feMergeNode in="coloredBlur"/><feMergeNode in="SourceGraphic"/></feMerge>
    </filter>
  </defs>
  <rect width="800" height="400" fill="url(#bgGrad)"/>
  <circle cx="680" cy="80" r="120" fill="#ffffff" fill-opacity="0.04"/>
  <circle cx="700" cy="60" r="70" fill="#abce5f" fill-opacity="0.07"/>
  <circle cx="100" cy="320" r="90" fill="#ffffff" fill-opacity="0.03"/>
  <circle cx="80" cy="350" r="50" fill="#abce5f" fill-opacity="0.06"/>
  <g opacity="0.18">
    <ellipse cx="195" cy="190" rx="140" ry="55" fill="none" stroke="#abce5f" stroke-width="1.5"/>
    <ellipse cx="195" cy="190" rx="110" ry="42" fill="none" stroke="#abce5f" stroke-width="1.5"/>
    <ellipse cx="195" cy="190" rx="80" ry="30" fill="none" stroke="#abce5f" stroke-width="1.5"/>
    <ellipse cx="195" cy="190" rx="50" ry="19" fill="none" stroke="#abce5f" stroke-width="1.5"/>
  </g>
  <g transform="translate(385, 85)">
    <path d="M0,50 C-45,50 -70,20 -65,-10 C-60,-45 -35,-60 0,-65 C35,-60 60,-45 65,-10 C70,20 45,50 0,50 Z" fill="url(#uterusGrad)" stroke="#abce5f" stroke-width="2.5" opacity="0.90"/>
    <rect x="-14" y="50" width="28" height="30" rx="6" fill="url(#uterusGrad)" stroke="#abce5f" stroke-width="2" opacity="0.80"/>
    <path d="M-63,-8 C-85,-8 -95,-22 -100,-20" fill="none" stroke="#abce5f" stroke-width="2" stroke-linecap="round"/>
    <circle cx="-105" cy="-20" r="12" fill="none" stroke="#abce5f" stroke-width="2" opacity="0.85"/>
    <path d="M63,-8 C85,-8 95,-22 100,-20" fill="none" stroke="#abce5f" stroke-width="2" stroke-linecap="round"/>
    <circle cx="105" cy="-20" r="12" fill="none" stroke="#abce5f" stroke-width="2" opacity="0.85"/>
    <line x1="0" y1="-55" x2="0" y2="40" stroke="#ffffff" stroke-width="1.5" opacity="0.30" stroke-dasharray="4,3"/>
    <circle cx="105" cy="-20" r="6" fill="#abce5f" opacity="0.25"/>
    <circle cx="0" cy="-10" r="7" fill="#ffffff" opacity="0.15"/>
  </g>
  <g transform="translate(580, 120)">
    <rect x="-12" y="0" width="24" height="65" rx="12" fill="#ffffff" fill-opacity="0.13" stroke="#ffffff" stroke-width="1.5" stroke-opacity="0.35"/>
    <ellipse cx="0" cy="65" rx="12" ry="7" fill="#abce5f" opacity="0.50"/>
    <path d="M0,0 C5,-25 -10,-40 0,-55" fill="none" stroke="#ffffff" stroke-width="2" stroke-opacity="0.25" stroke-linecap="round"/>
  </g>
  <rect x="0" y="320" width="800" height="5" fill="url(#greenGrad)" opacity="0.70"/>
  <rect x="0" y="330" width="800" height="70" fill="#003350" fill-opacity="0.65"/>
  <text x="400" y="360" font-family="Montserrat, Arial, sans-serif" font-size="22" font-weight="700" fill="#ffffff" text-anchor="middle">Ultrassom Pélvico e Transvaginal</text>
  <text x="400" y="383" font-family="Open Sans, Arial, sans-serif" font-size="13.5" fill="#abce5f" text-anchor="middle">Miomas · Cistos · Endometriose · Maracanaú – CE</text>
  <rect x="30" y="22" width="185" height="30" rx="15" fill="#abce5f" fill-opacity="0.18" stroke="#abce5f" stroke-width="1" stroke-opacity="0.5"/>
  <text x="122" y="42" font-family="Montserrat, Arial, sans-serif" font-size="12" font-weight="600" fill="#abce5f" text-anchor="middle">UNO DIAGNÓSTICO</text>
</svg>
